PathFileType	4	(X/Y/Z)	7_coords_data.trc
DataRate	CameraRate	NumFrames	NumMarkers	Units	OrigDataRate	OrigDataStartFrame	OrigNumFrames
30.0	30.0	7	21	m	30.0	11	53
Frame#	Time	THUMB_TIP	THUMB_IP	THUMB_MCP	THUMB_CMC	INDEX_TIP	INDEX_DIP	INDEX_PIP	INDEX_MCP	MIDDLE_TIP	MIDDLE_DIP	MIDDLE_PIP	MIDDLE_MCP	RING_TIP	RING_DIP	RING_PIP	RING_MCP	PINKY_TIP	PINKY_DIP	PINKY_PIP	PINKY_MCP	WRIST
X1	Y1	Z1	X2	Y2	Z2	X3	Y3	Z3	X4	Y4	Z4	X5	Y5	Z5	X6	Y6	Z6	X7	Y7	Z7	X8	Y8	Z8	X9	Y9	Z9	X10	Y10	Z10	X11	Y11	Z11	X12	Y12	Z12	X13	Y13	Z13	X14	Y14	Z14	X15	Y15	Z15	X16	Y16	Z16	X17	Y17	Z17	X18	Y18	Z18	X19	Y19	Z19	X20	Y20	Z20	X21	Y21	Z21
10	0.3333333333333333	-0.05156480026245117	-0.051023300170898435	0.9888259887695312	-0.03820750045776367	-0.028633800506591797	0.9962639770507813	-0.034284900665283204	-0.009775919914245606	1.0170999755859376	-0.033289798736572264	0.022739700317382813	1.0346500244140624	-0.022643800735473632	0.017284900665283202	1.0035700073242189	-0.00808590030670166	0.02248789978027344	0.990323974609375	-0.010067099571228028	0.024363000869750975	0.9668800048828124	-0.04557300186157227	0.015223999977111817	0.97722802734375	-0.022444099426269532	0.031927299499511716	1.0101300048828126	-0.011137499809265136	0.039220298767089844	1.001260009765625	-0.008359720230102539	0.046082099914550784	0.9756019897460938	-0.04813949966430664	0.039800399780273436	0.9735339965820312	-0.030152099609375	0.04505229949951172	1.0183800048828124	-0.016397199630737304	0.05447990036010742	1.0095399780273437	-0.012345399856567383	0.0648416976928711	0.987469970703125	-0.04993379974365234	0.06057279968261719	0.9818209838867188	-0.032995098114013674	0.0585250015258789	1.0240999755859375	-0.020408199310302733	0.06719190216064454	1.0176400146484375	-0.01980080032348633	0.07668160247802734	1.0024199829101563	-0.04957199859619141	0.07625949859619141	0.9949450073242188	-0.05496789932250976	0.04544549942016601	1.0508299560546874
11	0.36666666666666664	-0.051463199615478517	-0.05030149841308594	0.9887960205078125	-0.03817340087890625	-0.02791349983215332	0.996280029296875	-0.03426259994506836	-0.009135439872741699	1.0172100219726563	-0.03328609848022461	0.02332110023498535	1.0348399658203125	-0.021960800170898437	0.01842099952697754	1.0039000244140626	-0.008000880241394044	0.023582199096679687	0.9903170166015625	-0.010339900016784668	0.025332000732421874	0.9668619995117187	-0.045618698120117186	0.015907899856567383	0.9773150024414062	-0.022576400756835938	0.03278770065307617	1.01027001953125	-0.01121090030670166	0.040243000030517576	1.00125	-0.008684499740600586	0.0470260009765625	0.9756339721679688	-0.04842359924316406	0.040529201507568356	0.973833984375	-0.03042070007324219	0.045900798797607424	1.018530029296875	-0.01664929962158203	0.0554640007019043	1.0094500122070313	-0.012856900215148926	0.0658490982055664	0.9873709716796875	-0.0504473991394043	0.06127159881591797	0.9820499877929687	-0.03327180099487305	0.05932310104370117	1.024050048828125	-0.02063920021057129	0.0683761978149414	1.0173699951171875	-0.02064419937133789	0.07807080078125	1.002010009765625	-0.05032109832763672	0.07691449737548828	0.9951069946289063	-0.05519329833984375	0.04591519927978516	1.0510400390625
12	0.4	-0.05100400161743164	-0.04962200164794922	0.9887639770507812	-0.0376781005859375	-0.027352899551391602	0.9963419799804687	-0.03392190170288086	-0.008591270446777344	1.017280029296875	-0.03322869873046875	0.02374970054626465	1.0350899658203125	-0.021789800643920897	0.019152799606323243	1.0043699951171876	-0.007706369876861572	0.024497299194335936	0.9909349975585937	-0.009720930099487305	0.02649959945678711	0.967375	-0.04508459854125976	0.016691900253295897	0.9777219848632812	-0.022441099166870117	0.033622699737548827	1.0109199829101563	-0.01100529956817627	0.041177101135253906	1.0019099731445313	-0.008333900451660155	0.04807400131225586	0.97627197265625	-0.04795140075683594	0.041291999816894534	0.9741480102539063	-0.03041889953613281	0.04642259979248047	1.0188800048828126	-0.016576099395751952	0.05626580047607422	1.0100999755859374	-0.012822699546813966	0.06684339904785157	0.9879459838867187	-0.05040190124511719	0.06192900085449219	0.9826690063476563	-0.033152599334716794	0.05986240005493164	1.0246199951171875	-0.02083090019226074	0.06911239624023438	1.0179600219726563	-0.020778699874877928	0.07880750274658203	1.0028900146484374	-0.05053630065917969	0.07752870178222657	0.9956060180664063	-0.05536100006103516	0.04609040069580078	1.0513599853515625
13	0.43333333333333335	-0.05035860061645508	-0.049235698699951175	0.9889340209960937	-0.037055400848388674	-0.026920799255371095	0.9966220092773438	-0.0334640007019043	-0.008260919570922851	1.0176500244140625	-0.03290399932861328	0.024034000396728514	1.03547998046875	-0.020388799667358397	0.019868900299072265	1.0048099975585938	-0.0067577300071716305	0.025243799209594728	0.9913090209960937	-0.009007769584655762	0.0271205997467041	0.9678920288085937	-0.044335201263427736	0.017152399063110352	0.9780590209960938	-0.021927400588989256	0.034020801544189454	1.0111400146484375	-0.01043239974975586	0.04179339981079101	1.00222998046875	-0.007823949813842773	0.048739498138427734	0.9768070068359375	-0.04734569931030273	0.04179010009765625	0.9745499877929688	-0.030026599884033202	0.0469021987915039	1.0195499877929688	-0.016232500076293944	0.05675040054321289	1.0106300048828125	-0.012514100074768067	0.06748200225830078	0.9885170288085937	-0.04999919891357422	0.062415298461914064	0.9830980224609375	-0.03296640014648437	0.06016009902954102	1.0248399658203124	-0.020624700546264647	0.0695385971069336	1.0183300170898437	-0.02073419952392578	0.07943720245361328	1.003280029296875	-0.05042309951782226	0.07794850158691406	0.9961829833984375	-0.05530130004882813	0.04629259872436523	1.0519000244140626
14	0.4666666666666667	-0.049522300720214844	-0.049151401519775394	0.9893289794921875	-0.0363207015991211	-0.026827199935913086	0.996927001953125	-0.032830799102783206	-0.008148859977722168	1.017969970703125	-0.03249029922485352	0.02410379981994629	1.0358599853515624	-0.020358999252319335	0.01999139976501465	1.00522998046875	-0.0061272501945495595	0.025490400314331054	0.99214599609375	-0.00831112003326416	0.02744610023498535	0.9686119995117187	-0.04365570068359375	0.017195499420166016	0.9784249877929687	-0.021590499877929686	0.03427679824829102	1.0118800048828125	-0.01013860034942627	0.042072200775146486	1.0029400024414064	-0.007308090209960936	0.04905899810791016	0.9772940063476563	-0.046848201751708986	0.0418484001159668	0.974958984375	-0.0298838005065918	0.046985401153564456	1.0199299926757812	-0.016053600311279295	0.057104198455810544	1.010969970703125	-0.012206399917602539	0.06777359771728515	0.989114013671875	-0.049694000244140626	0.06246659851074219	0.9834829711914063	-0.033085498809814456	0.06028979873657227	1.02522998046875	-0.020566299438476564	0.069841796875	1.0188200073242188	-0.02074180030822754	0.07981729888916016	1.0036699829101563	-0.050339500427246095	0.07797859954833984	0.9964940185546876	-0.055198101043701174	0.04629299926757813	1.0521400146484374
15	0.5	-0.048982898712158204	-0.04909000015258789	0.9895250244140625	-0.03579159927368164	-0.026738100051879883	0.9971890258789062	-0.032372699737548825	-0.008115389823913573	1.0182899780273438	-0.03208150100708008	0.02407390022277832	1.0361400146484374	-0.02024220085144043	0.019924699783325197	1.0055800170898437	-0.005844289779663086	0.02561389923095703	0.9924550170898437	-0.007816720008850097	0.027618600845336915	0.9690180053710937	-0.04317110061645508	0.017208999633789062	0.9787670288085938	-0.020999200820922853	0.03437839889526367	1.0120900268554687	-0.00978441047668457	0.042127998352050784	1.0033599853515625	-0.006927020072937011	0.049158599853515624	0.977968017578125	-0.04645819854736328	0.04187110137939453	0.9752960205078125	-0.02952079963684082	0.04698649978637695	1.02022998046875	-0.015736599922180176	0.05710910034179688	1.0113800048828125	-0.011911700248718262	0.0678585968017578	0.9896060180664062	-0.04932929992675781	0.06251750183105469	0.98393701171875	-0.03266730117797852	0.06031119918823242	1.0256199951171876	-0.02026959991455078	0.06987429809570313	1.0191900024414062	-0.020525999069213867	0.07991580200195313	1.0039600219726563	-0.05010710144042969	0.0779656982421875	0.9968939819335938	-0.0547765998840332	0.046182498931884766	1.052469970703125
16	0.5333333333333333	-0.04881389999389649	-0.04925609970092774	0.9898759765625	-0.03560409927368164	-0.026864200592041015	0.9974840087890625	-0.032110298156738284	-0.008261030197143554	1.018530029296875	-0.03178109931945801	0.023988700866699218	1.0364300537109374	-0.02039959907531738	0.01973590087890625	1.0056799926757813	-0.00588247013092041	0.025424200057983397	0.9928040161132813	-0.0075674901008605956	0.027487300872802736	0.9694739990234374	-0.042999801635742185	0.01700320053100586	0.9789849853515625	-0.020992399215698242	0.03428860092163086	1.0125499877929687	-0.009712779998779297	0.04198839950561523	1.003739990234375	-0.006734149932861328	0.049014999389648435	0.978469970703125	-0.04622949981689453	0.04162030029296875	0.9755239868164063	-0.0294778995513916	0.0469739990234375	1.0208099975585938	-0.015601900100708008	0.056981201171875	1.01197998046875	-0.011664400100708008	0.06767749786376953	0.990073974609375	-0.049120098114013674	0.062321800231933594	0.9840960083007813	-0.03252289962768555	0.060226600646972654	1.025760009765625	-0.020126699447631836	0.06978890228271484	1.019489990234375	-0.020324399948120117	0.07980059814453125	1.0041599731445312	-0.04991230010986328	0.07782479858398438	0.99697802734375	-0.0544900016784668	0.04613230133056641	1.052719970703125
